# xmcd
#
# Track frame offsets: 
#        150
#        14460
#        63027
#        115007
#        154087
#        158555
#        177505
#        189492
#        218900
#        243447
#        250415
#        275565
#        293020
#
# Disc length: 4415 seconds
#
# Revision: 1
# Processed by: cddbd v1.5.2PL0 Copyright (c) Steve Scherf et al.
# Submitted via: ExactAudioCopy v0.90b4
#
DISCID=b2113d0d
DTITLE=The Siamese Stepbrothers - The Siamese Stepbrothers
DYEAR=1995
DGENRE=Progressive Rock
TTITLE0=Separated At Birth (The Stepbrothers Theme)
TTITLE1=Headless Horsemen
TTITLE2=Blind Willie - Requiem For Sonny
TTITLE3=104% - Countdown
TTITLE4=Etude Opus 42, #3
TTITLE5=Agharta Prelude
TTITLE6=Swirls Before Pine
TTITLE7=Commodity
TTITLE8=Epistle
TTITLE9=Hey Pineapple!
TTITLE10=What Are We Looking At?
TTITLE11=Secret Of The Maren Dome
TTITLE12=Brucenette
EXTD=YEAR: 1995
EXTT0=
EXTT1=
EXTT2=
EXTT3=
EXTT4=
EXTT5=
EXTT6=
EXTT7=
EXTT8=
EXTT9=
EXTT10=
EXTT11=
EXTT12=
PLAYORDER=
